<?xml version="1.0" encoding="iso-8859-1"?>
<!-- Uploaded to: SVG Repo, www.svgrepo.com, Generator: SVG Repo Mixer Tools -->
<svg fill="#000000" height="800px" width="800px" version="1.1" id="Layer_1" xmlns="http://www.w3.org/2000/svg" xmlns:xlink="http://www.w3.org/1999/xlink" 
	 viewBox="0 0 512 512" xml:space="preserve">
<g>
	<g>
		<path d="M492.301,339.129c0.047-1.27,0.094-2.541,0.094-3.818c0-3.847-0.3-8.401-1.158-13.428
			c18.412-39.864,24.622-77.743,18.458-112.647c-5.493-31.11-21.144-59.665-45.259-82.582
			c-23.117-21.968-53.469-38.376-85.466-46.199c-31.315-7.658-60.396-5.981-79.787,4.599
			c-20.029,10.927-28.984,30.508-24.567,53.722c0.664,3.493,1.423,9.749-0.958,12.399c-1.734,1.928-7.209,5.273-24.4,5.995
			c-15.295,0.651-35.32-0.997-56.518-2.73c-39.833-3.262-84.98-6.956-127.684,0.725c-32.186,5.79-52.757,19.998-61.141,42.232
			c-14.703,38.988,15.855,87.364,28.449,104.892c-5.68,12.82-7.081,24.562-7.082,32.969c0,3.795,0.228,7.536,0.637,11.223
			c-5.212,2.575-8.807,7.927-8.808,14.134c-0.001,8.712,7.06,15.775,15.772,15.776h1.185c15.778,35.236,51.15,59.862,92.189,59.867
			c0.002,0,0.003,0,0.007,0c23.245-0.001,42.069-13.026,60.273-25.624c20.555-14.224,41.805-28.931,72.286-28.931
			c0.001,0,0.008,0,0.011,0c30.483,0.004,51.737,14.718,72.29,28.949c18.203,12.602,37.025,25.634,60.273,25.636
			c0.005,0,0.007,0,0.012,0c26.969,0,52.328-10.502,71.401-29.57c10.92-10.917,19.016-23.901,23.957-38.062
			c5.855-0.727,11.064-4.714,13.043-10.688C502.255,350.582,498.93,342.686,492.301,339.129z M453.432,342.607
			c-1.886,5.695-0.347,11.7,3.496,15.782c-3.403,9.679-8.953,18.551-16.423,26.018c-13.117,13.112-30.551,20.332-49.098,20.332
			c-0.002,0-0.006,0-0.008,0c-13.395-0.001-26.798-9.281-42.318-20.027c-22.235-15.395-49.907-34.554-90.245-34.558
			c-0.005,0-0.008,0-0.014,0c-40.329,0-68.003,19.151-90.239,34.537c-15.521,10.741-28.927,20.018-42.321,20.018
			c-0.001,0-0.002,0-0.003,0c-26.825-0.004-50.129-15.307-61.686-37.632c0.888-1.972,1.393-4.153,1.393-6.456
			c0.001-5.951-3.297-11.129-8.162-13.816c-0.631-3.758-0.977-7.61-0.976-11.543c0.002-21.156,13.196-39.923,38.154-54.275
			c34.742-19.978,91.375-30.536,163.784-30.536c0.026,0,0.055,0,0.081,0c72.447,0.008,129.109,10.58,163.859,30.575
			c24.343,14.005,37.484,32.212,38.111,52.734C457.449,335.609,454.735,338.672,453.432,342.607z M472.917,282.208
			c-7.97-9.846-19.06-19.657-34.479-28.527c-40.093-23.067-100.515-34.768-179.587-34.776c-0.034,0-0.053,0-0.087,0
			c-79.022,0-139.427,11.688-179.508,34.735c-11.366,6.536-20.374,13.585-27.527,20.78c-11.601-18.639-25.304-47.382-18.289-65.918
			c4.201-11.104,16.717-18.604,37.198-22.288c38.652-6.952,81.618-3.435,119.525-0.331c49.289,4.033,88.218,7.221,106.952-13.616
			c8.752-9.736,11.609-22.987,8.49-39.385c-1.86-9.777,0.737-15.797,8.685-20.132c23.236-12.677,84.814-4.656,128.412,36.774
			C469.058,174.568,493.476,216.994,472.917,282.208z"/>
	</g>
</g>
</svg>